{"title":"Supernatural S04D3 (retail)(ENG+NL SUBS) RHoek","uid":6025802,"size":4509112302,"categoryP":"video","categoryS":"tv_shows","magnet":"?xt=urn:btih:a797561d559e3f6ca69b4a8746dda907356b5981&amp;dn=Supernatural+S04D3+%28retail%29%28ENG%2BNL+SUBS%29+RHoek&amp;tr=udp%3A%2F%2Ftracker.openbittorrent.com%3A80&amp;tr=udp%3A%2F%2Fopen.demonii.com%3A1337&amp;tr=udp%3A%2F%2Ftracker.coppersurfer.tk%3A6969&amp;tr=udp%3A%2F%2Fexodus.desync.com%3A6969","seeders":0,"leechers":1,"uploader":"RHoek-2lions","files":-1,"time":1291927124,"description":"FOR ENGLISH, PLEASE SCROLL DOWN!\n\n~~~~~~~~~~~~~~~~~~~~~~~~~~~~~~~~~~~~~~~~~~~~~~~~~~~~~~~~~\nVERHAALLIJN:\nÃ‚Â¯Ã‚Â¯Ã‚Â¯Ã‚Â¯Ã‚Â¯Ã‚Â¯Ã‚Â¯Ã‚Â¯Ã‚Â¯Ã‚Â¯Ã‚Â¯Ã‚Â¯\nDean keert terug onder de levenden, maar voor hoe lang? Naar de hel en weer terug. Vier maanden na zijn afdaling naar de onderwereld klimt Dean Winchester weer uit zijn graf. Hij - en de gehele mensheid - zullen al snel voor nog ergere verschrikkingen komen te staan. Een koele engel waarschuwt hem dat Lucifer spoedig vrij zal zijn en de Apocalyps zal ontketenen. Met Sam aan zijn zijde gaat Dean de strijd aan met de duivelse wezens die nu de Prins der Duisternis dienen. Hij reist af naar de tijd voordat hij was geboren om zijn ouders te ontmoeten, en komt eindelijk achter de verbazingwekkende relatie tussen zijn lieve moeder en de demon met de gele ogen.\n\n~~~~~~~~~~~~~~~~~~~~~~~~~~~~~~~~~~~~~~~~~~~~~~~~~~~~~~~~~\n- Titel: Supernatural S04D3 (retail)(ENG+NL SUBS) RHoek\n- Bron: Retail\n- Formaat: DVD5 \n- Audio: 2.0\n- Taal: Engels\n- Ondertitelingen: Nederlands - Engels\n- Menu: Ja\n- Extra's: Nee\n- Cover: Nee\n- Label: Nee\n- Genre : Drama | Fantasy | Horror | Mystery | Thriller \n\nIMDb: http://www.imdb.com/title/tt0460681/\nOfficiÃƒÂ«le website: http://supernatural.warnerbros.com/\n\n~~~~~~~~~~~~~~~~~~~~~~~~~~~~~~~~~~~~~~~~~~~~~~~~~~~~~~~~~\nSTORY LINE:\nÃ‚Â¯Ã‚Â¯Ã‚Â¯Ã‚Â¯Ã‚Â¯Ã‚Â¯Ã‚Â¯Ã‚Â¯Ã‚Â¯Ã‚Â¯Ã‚Â¯\nThis season focuses on Sam and Dean continuing to hunt demons, the introduction of a mysterious angel, Castiel (Misha Collins), as well as Sam Winchester's new powers, and Dean's return from Hell and his memory of his time spent there. This season also touches on the brothers' continuing hunt for Lilith, who is trying to release Lucifer on the world.\n\n~~~~~~~~~~~~~~~~~~~~~~~~~~~~~~~~~~~~~~~~~~~~~~~~~~~~~~~~~\n- Title: Supernatural S04D3 (retail)(ENG+NL SUBS) RHoek\n- Source: Retail\n- Format: DVD5 \n- Audio: 2.0\n- Language: Engels\n- Subtitles: Dutch - English\n- Menu: Yes\n- Extras: No\n- Cover: No\n- Label: No\n- Genre : Drama | Fantasy | Horror | Mystery | Thriller \n\nIMDb: http://www.imdb.com/title/tt0460681/\nOfficial website: http://supernatural.warnerbros.com/\n\n~~~~~~~~~~~~~~~~~~~~~~~~~~~~~~~~~~~~~~~~~~~~~~~~~~~~~~~~~\nVIDEO AND AUDIO INFORMATION\nÃ‚Â¯Ã‚Â¯Ã‚Â¯Ã‚Â¯Ã‚Â¯Ã‚Â¯Ã‚Â¯Ã‚Â¯Ã‚Â¯Ã‚Â¯Ã‚Â¯Ã‚Â¯Ã‚Â¯Ã‚Â¯Ã‚Â¯Ã‚Â¯Ã‚Â¯Ã‚Â¯Ã‚Â¯Ã‚Â¯Ã‚Â¯Ã‚Â¯Ã‚Â¯Ã‚Â¯Ã‚Â¯Ã‚Â¯Ã‚Â¯Ã‚Â¯Ã‚Â¯Ã‚Â¯\nVideo\nID                               : 224 (0xE0)\nFormat                           : MPEG Video\nFormat version                   : Version 2\nFormat profile                   : Main@Main\nFormat settings, BVOP            : Yes\nFormat settings, Matrix          : Default\nDuration                         : 11s 893ms\nBit rate mode                    : Variable\nBit rate                         : 702 Mbps\nWidth                            : 720 pixels\nHeight                           : 576 pixels\nDisplay aspect ratio             : 16:9\nFrame rate                       : 25.000 fps\nStandard                         : PAL\nColor space                      : YUV\nChroma subsampling               : 4:2:0\nBit depth                        : 8 bits\nBits/(Pixel*Frame)               : 67.665\nStream size                      : 995 MiB (97%)\nWriting library                  : TMPGEnc 2.524.63.181\n\nAudio\nID                               : 128 (0x80)\nFormat                           : AC-3\nFormat/Info                      : Audio Coding 3\nMode extension                   : CM (complete main)\nDuration                         : 11s 994ms\nBit rate mode                    : Constant\nBit rate                         : 384 Kbps\nChannel(s)                       : 6 channels\nChannel positions                : Front: L C R, Side: L R, LFE\nSampling rate                    : 48.0 KHz\nBit depth                        : 16 bits\nVideo delay                      : -229ms\nStream size                      : 562 KiB (0%)\n\n**********************************\nBrought to you by Ren HÃƒÂ¶ek\n**********************************\n","torrent":{"xt":"urn:btih:a797561d559e3f6ca69b4a8746dda907356b5981","amp;dn":"Supernatural+S04D3+%28retail%29%28ENG%2BNL+SUBS%29+RHoek","amp;tr":["udp%3A%2F%2Ftracker.openbittorrent.com%3A80","udp%3A%2F%2Fopen.demonii.com%3A1337","udp%3A%2F%2Ftracker.coppersurfer.tk%3A6969","udp%3A%2F%2Fexodus.desync.com%3A6969"],"infoHash":"a797561d559e3f6ca69b4a8746dda907356b5981","infoHashBuffer":{"type":"Buffer","data":[167,151,86,29,85,158,63,108,166,155,74,135,70,221,169,7,53,107,89,129]},"announce":[],"urlList":[]}}